<?xml version="1.0" encoding="utf-8"?>
<!-- Generator: Adobe Illustrator 16.0.0, SVG Export Plug-In . SVG Version: 6.00 Build 0)  -->
<!DOCTYPE svg PUBLIC "-//W3C//DTD SVG 1.1//EN" "http://www.w3.org/Graphics/SVG/1.1/DTD/svg11.dtd">
<svg version="1.1" id="Layer_1" xmlns="http://www.w3.org/2000/svg" xmlns:xlink="http://www.w3.org/1999/xlink" x="0px" y="0px"
	 width="700px" height="500px" viewBox="0 0 700 500" enable-background="new 0 0 700 500" xml:space="preserve">
<filter  height="1.24606" width="1.58486" id="filter4342" y="-.12303" x="-.29243">
	<feGaussianBlur  stdDeviation="1.46189"></feGaussianBlur>
</filter>
<filter  id="filter4318">
	<feGaussianBlur  stdDeviation="1.20392"></feGaussianBlur>
</filter>
<filter  height="1.1352" width="1.63093" id="filter3720" y="-.0676" x="-.31546">
	<feGaussianBlur  stdDeviation=".56333"></feGaussianBlur>
</filter>
<filter  id="filter3663">
	<feGaussianBlur  stdDeviation=".48009"></feGaussianBlur>
</filter>
<filter  id="filter3640">
	<feGaussianBlur  stdDeviation="2.14525"></feGaussianBlur>
</filter>
<pattern  x="0.5" y="500.5" width="56.299" height="9.701" patternUnits="userSpaceOnUse" id="Wavy" viewBox="0.019 -9.702 56.299 9.701" overflow="visible">
	<g>
		<polygon fill="none" points="0.019,-0.001 56.317,-0.001 56.317,-9.701 0.019,-9.701 		"/>
		<path d="M14.244-0.115C9.529,0.35,4.992-0.566,0-3.35v-2.383c5.211,3.052,9.705,3.762,14.01,3.334
			c4.305-0.426,8.421-2.023,12.698-3.629c8.552-3.207,17.884-6.475,29.61,0.295L56.31-3.35C44.251-10.294,36.057-7.061,27.528-3.86
			C23.262-2.262,18.959-0.584,14.244-0.115z"/>
	</g>
</pattern>
<g transform="translate(221.7538,-795.41403)">
	<path stroke="#000000" stroke-width="0.5" stroke-linecap="round" stroke-linejoin="round" d="M288.545,1282.205
		c1.16-0.58-6.381-10.44-15.08-15.66c-8.7-5.221-28.42-5.801-35.961-5.801c-7.539,0-30.74,13.92-30.74,13.92
		S286.225,1282.204,288.545,1282.205L288.545,1282.205z"/>
	<path fill="#84401E" d="M83.803,983.502c-13.92,0-2.32,3.479-2.32,3.479s3.48,18.561,11.601,35.96
		c8.12,17.4,25.521,13.92,25.521,13.92l10.439,20.88l68.441,18.561c0,0,46.4-24.36,49.88-30.16
		c3.479-5.8,38.86-22.041,44.661-26.681c7.322-6.206,30.263,21.778,33.06,29l-8.12-46.4c0,0-3.48-2.32-11.6-3.479
		c-8.121-1.16-16.24-3.48-16.24-3.48S97.723,983.502,83.803,983.502z"/>
	<path fill="#FFB380" stroke="#000000" stroke-width="0.9614" stroke-linecap="round" stroke-linejoin="round" d="M242.157,1232.444
		l-60.646-83.733l-37.599,74.286l-27.559-148.924c-5.019-8.049,12.054-0.758,16.284,13.406c2.591,8.674,19.35,49.679,10.818,63.369
		c5.678-31.886,45.727-67.562-16.668-20.315c-2.585,1.958-8.69,7.517-14.359,7.775c-13.033,0.594-43.901-18.107-57.122-25.941
		l7.587-27.385c25.008,9.213,37.074,16.493,43.066,11.234c17-14.916,1.614-27.902,8.273-32.046l27.276-14.158l41.013-71.814
		l48.313,82.854l31.47-5.14c20.441,13.087,26.615,57.503,27.314,90.934l-28.319,9.11l-8.862-64.269l-16.043,35.481
		C244.084,1162.262,237.379,1197.353,242.157,1232.444L242.157,1232.444z"/>
	<path fill="#502D16" stroke="#000000" stroke-width="0.7357" d="M126.525,1252.148c34.16,0,43.831,13.951,43.835,29.291
		c0.004,13.734-20.179,10.501-38.619,5.625c-37.514,2.211-71.501,11.658-66.149-10.189
		C73.446,1258.964,92.364,1252.148,126.525,1252.148z"/>
	<path fill="#502D16" stroke="#000000" stroke-width="0.6142" d="M237.525,1258.18c29.922,0,38.396,11.101,38.396,23.306
		s-12.581,12.14-42.503,12.14c-29.921,0-26.707-1.728-26.707-13.933S207.604,1258.18,237.525,1258.18z"/>
	<path fill="#D45500" stroke="#000000" stroke-width="0.6142" stroke-linecap="round" stroke-linejoin="round" d="M251.984,1259.077
		c0,2.575-7.021,4.665-15.67,4.665c-8.65,0-15.672-2.09-15.672-4.665C225.471,1259.148,249.715,1258.449,251.984,1259.077z"/>
	<path fill="none" stroke="#000000" stroke-width="1.2284" d="M219.217,1258.329c-0.143,11.804,36.969-13.526,38.111,0
		C256.9,1269.675,220.378,1245.072,219.217,1258.329z"/>
	<path fill="#84401E" stroke="#000000" stroke-width="0.9158" stroke-linecap="round" stroke-linejoin="round" d="M220.002,1045.262
		c42.311-8.065,48.684,11.767,77.16,65.813c-12.594,5.151-16.348,18.703-40.162,16.944l-7.625-29.08
		c2.172,7.064,21.359,80.355,31.409,131.923c4.688,24.051,7.388,43.375,5.448,49.054c-7.533-15.909-52.086-28.699-71.415-7.075
		c-34.192,38.252-75.575,5.256-111.53-14.554l21.533-169.939l-4.826,24.047c-9.812,1.661-16.354-12.658-26.166-16.238
		c26.395-48.858,11.26-37.805,38.52-53.437L220.002,1045.262L220.002,1045.262z"/>
	<g opacity="0.5105" filter="url(#filter4318)" enable-background="new    ">
		<path fill="#E2807A" d="M287.485,1108.579c-7.827,4.211-13.021,10.813-26.923,12.353c13.486,0.919,17.834-50.359-43.158-69.562
			l24.129-2.464C272.066,1051.096,286.362,1079.715,287.485,1108.579z"/>
		<path fill="none" stroke="#C03434" stroke-linecap="round" stroke-linejoin="round" d="M287.485,1108.579
			c-7.827,4.211-13.021,10.813-26.923,12.353c13.486,0.919,17.834-50.359-43.158-69.562l24.129-2.464
			C272.066,1051.096,286.362,1079.715,287.485,1108.579z"/>
	</g>
	<path fill="#FFB380" stroke="#000000" stroke-width="0.7663" d="M289.373,870.527c-69.982-107.79-144.047-95.008-196.614,16.075
		l11.587,108.861c2.96,27.818,48.758,59.384,64.262,61.138c15.752-1.227,99.762-19.682,115.557-52.197
		C299.332,973.178,302.329,936.454,289.373,870.527L289.373,870.527z"/>
	<path fill="#FFFFFF" stroke="#000000" stroke-width="0.5" stroke-linecap="round" stroke-linejoin="round" d="M144.703,915.641
		L144.703,915.641l-0.264,0.075l-0.354,0.011c-8.859-2.286-15.732-8.816-25.482-4.726l-13.92,10.44
		c-1.316,17.754-5.326,32.207,8.119,45.821l28.42-11.021L144.703,915.641L144.703,915.641z"/>
	<path fill="#FFFFFF" stroke="#000000" stroke-width="0.5" stroke-linecap="round" stroke-linejoin="round" d="M181.824,918.541
		l4.64,41.76l41.761,11.02c18.496-18.496,14.684-16.042,12.76-43.5C215.758,903.264,215.193,910.571,181.824,918.541z"/>
	<g filter="url(#filter3640)">
		<path fill="#FFCCAA" d="M263.567,918.443c26.75,30.957,27.869,80.199-10.25,109.445c-31.735,24.348-111.433,32.479-77.58,21.298
			C281.131,1006.029,272.443,910.536,263.567,918.443z"/>
	</g>
	<g opacity="0.7421" filter="url(#filter3663)" enable-background="new    ">
		<path fill="#0A550A" d="M192.511,934.021c3.114-13.327,13.7-22.363,23.646-20.183c9.945,2.18,15.482,14.751,12.368,28.079
			c-0.001,0-0.001,0-0.001,0.001c-3.113,13.327-13.7,22.363-23.645,20.183C194.934,959.92,189.397,947.349,192.511,934.021
			C192.511,934.021,192.511,934.021,192.511,934.021z"/>
		<path fill="none" stroke="#000000" stroke-width="9.5" d="M192.511,934.021c3.114-13.327,13.7-22.363,23.646-20.183
			c9.945,2.18,15.482,14.751,12.368,28.079c-0.001,0-0.001,0-0.001,0.001c-3.113,13.327-13.7,22.363-23.645,20.183
			C194.934,959.92,189.397,947.349,192.511,934.021C192.511,934.021,192.511,934.021,192.511,934.021z"/>
	</g>
	<g opacity="0.7421" filter="url(#filter3663)" enable-background="new    ">
		<path d="M198.617,925.607c1.63-6.975,9.538-11.186,17.663-9.404c8.124,1.781,13.39,8.88,11.76,15.855c0,0,0,0,0,0
			c-1.63,6.976-9.538,11.186-17.663,9.405S196.987,932.583,198.617,925.607C198.617,925.608,198.617,925.608,198.617,925.607z"/>
		<path fill="none" stroke="#000000" stroke-width="9.5" d="M198.617,925.607c1.63-6.975,9.538-11.186,17.663-9.404
			c8.124,1.781,13.39,8.88,11.76,15.855c0,0,0,0,0,0c-1.63,6.976-9.538,11.186-17.663,9.405S196.987,932.583,198.617,925.607
			C198.617,925.608,198.617,925.608,198.617,925.607z"/>
	</g>
	<g opacity="0.8632" filter="url(#filter3663)" enable-background="new    ">
		<path d="M201.588,937.13c1.42-6.077,6.458-10.152,11.253-9.101c4.794,1.051,7.53,6.83,6.11,12.908c0,0,0,0,0,0
			c-1.421,6.077-6.459,10.152-11.254,9.101C202.903,948.987,200.168,943.208,201.588,937.13
			C201.588,937.131,201.588,937.131,201.588,937.13z"/>
		<path fill="none" stroke="#000000" stroke-width="9.5" d="M201.588,937.13c1.42-6.077,6.458-10.152,11.253-9.101
			c4.794,1.051,7.53,6.83,6.11,12.908c0,0,0,0,0,0c-1.421,6.077-6.459,10.152-11.254,9.101
			C202.903,948.987,200.168,943.208,201.588,937.13C201.588,937.131,201.588,937.131,201.588,937.13z"/>
	</g>
	<path opacity="0.8632" fill="#FFFFFF" stroke="#FFF9F9" stroke-width="1.1212" enable-background="new    " d="M213.713,917.586
		c2.119-1.991,6.76-0.715,10.385,4.118c3.625,4.833,3.117,11.504,0.998,13.495c-2.12,1.992-1.165-5.747-4.79-10.58
		C216.681,919.786,211.593,919.578,213.713,917.586z"/>
	<path opacity="0.8632" fill="#FFFFFF" stroke="#FFF9F9" stroke-width="0.4308" enable-background="new    " d="M195.713,946.955
		c0.751,2.412,2.543,3.48,1.562,3.768c-0.979,0.287-2.492-1.071-3.242-3.483c-0.751-2.412,0.18-4.662,1.158-4.949
		C196.172,942.004,194.963,944.543,195.713,946.955L195.713,946.955z"/>
	<path fill="#2B0000" stroke="#000000" stroke-width="0.1332" d="M226.087,973.44l10.468-9.962L228.9,969.6l-45.092-9.885
		L226.087,973.44z"/>
	<path fill="none" stroke="#000000" stroke-width="0.6979" d="M190.089,913.363c11.519-7.329,30.062-9.609,47.067-0.833"/>
	<g opacity="0.7421" filter="url(#filter3663)" enable-background="new    ">
		<path fill="#0A550A" d="M136.467,930.745c-2.107-12.886-9.276-21.623-16.01-19.515c-6.734,2.108-10.484,14.263-8.375,27.149
			c0,0,0,0,0,0.001c2.108,12.886,9.277,21.623,16.011,19.515C134.826,955.787,138.576,943.631,136.467,930.745
			C136.467,930.745,136.467,930.745,136.467,930.745z"/>
		<path fill="none" stroke="#000000" stroke-width="9.5" d="M136.467,930.745c-2.107-12.886-9.276-21.623-16.01-19.515
			c-6.734,2.108-10.484,14.263-8.375,27.149c0,0,0,0,0,0.001c2.108,12.886,9.277,21.623,16.011,19.515
			C134.826,955.787,138.576,943.631,136.467,930.745C136.467,930.745,136.467,930.745,136.467,930.745z"/>
	</g>
	<g opacity="0.7421" filter="url(#filter3663)" enable-background="new    ">
		<path d="M132.332,922.604c-1.104-6.744-6.458-10.815-11.959-9.093c-5.502,1.722-9.067,8.585-7.964,15.33c0,0,0.001,0,0.001,0
			c1.104,6.744,6.457,10.815,11.959,9.093C129.871,936.211,133.436,929.348,132.332,922.604L132.332,922.604z"/>
		<path fill="none" stroke="#000000" stroke-width="9.5" d="M132.332,922.604c-1.104-6.744-6.458-10.815-11.959-9.093
			c-5.502,1.722-9.067,8.585-7.964,15.33c0,0,0.001,0,0.001,0c1.104,6.744,6.457,10.815,11.959,9.093
			C129.871,936.211,133.436,929.348,132.332,922.604L132.332,922.604z"/>
	</g>
	<g opacity="0.8632" filter="url(#filter3663)" enable-background="new    ">
		<path d="M130.32,933.745c-0.961-5.876-4.373-9.816-7.619-8.799c-3.246,1.016-5.099,6.604-4.137,12.48c0,0,0,0,0,0
			c0.961,5.876,4.373,9.815,7.619,8.799C129.43,945.208,131.282,939.621,130.32,933.745L130.32,933.745z"/>
		<path fill="none" stroke="#000000" stroke-width="9.5" d="M130.32,933.745c-0.961-5.876-4.373-9.816-7.619-8.799
			c-3.246,1.016-5.099,6.604-4.137,12.48c0,0,0,0,0,0c0.961,5.876,4.373,9.815,7.619,8.799
			C129.43,945.208,131.282,939.621,130.32,933.745L130.32,933.745z"/>
	</g>
	<path opacity="0.8632" fill="#FFFFFF" stroke="#FFF9F9" stroke-width="0.9072" enable-background="new    " d="M117.647,921.647
		c2.455-4.673,5.9-4.874,4.465-6.8s-4.578-0.691-7.032,3.981c-2.455,4.673-2.11,11.123-0.675,13.048
		C115.839,933.803,115.192,926.321,117.647,921.647L117.647,921.647z"/>
	<path opacity="0.8632" fill="#FFFFFF" stroke="#FFF9F9" stroke-width="0.3486" enable-background="new    " d="M133.24,946.886
		c0.664,0.277,1.688-1.035,2.196-3.367c0.509-2.332-0.122-4.507-0.785-4.784c-0.663-0.277,0.155,2.177-0.353,4.509
		C133.791,945.575,132.577,946.609,133.24,946.886z"/>
	<path fill="#2B0000" stroke="#000000" stroke-width="0.1077" d="M142.36,955.58l-28.628,13.271l-7.088-9.632l5.184,5.919
		L142.36,955.58L142.36,955.58z"/>
	<path fill="none" stroke="#000000" stroke-width="0.5647" d="M142.934,912.581c-7.799-7.085-20.354-9.291-31.869-0.805"/>
	<path fill="#FFB380" stroke="#000000" stroke-width="0.7807" stroke-linecap="round" stroke-linejoin="round" d="M292.066,927.196
		c14.915,7.587,19.121,24.183,6.116,45.825c-4.701,4.331-8.158,6.663-14.498,6.324 M286.692,956.362
		c-1.069,4.812-9.37,3.467-7.807,8.219c1.102,3.348,3.607,1.04,7.154,0.629c12.69-1.468,10.999-22.518,0.898-27.087"/>
	
		<path opacity="0.93" fill="#FFFFFF" stroke="#000000" stroke-width="0.5858" stroke-opacity="0.8182" enable-background="new    " d="
		M185.024,907.693c31.756-62.187,74.478-24.119,86.553,14.79C256.338,903.896,212.28,884.6,185.024,907.693z"/>
	<path fill="#E6E6E6" stroke="#000000" stroke-width="0.5" stroke-linecap="round" stroke-linejoin="round" d="M101.203,867.501
		l-5.801,32.48l2.32,42.92c0,0-3.48-1.16-9.28-11.6s1.16-9.28-4.64-29c-5.8-19.72-3.48-11.6-1.16-20.88
		C84.963,872.141,101.203,867.5,101.203,867.501L101.203,867.501z"/>
	
		<path opacity="0.93" fill="#FFFFFF" stroke="#000000" stroke-width="0.4293" stroke-opacity="0.8182" enable-background="new    " d="
		M153.832,891.281c-24.617-32.231-54.143-4.227-62.447,16.058C101.364,889.672,137.137,901.562,153.832,891.281z"/>
	<g filter="url(#filter3720)">
		<polygon fill="#FFCCAA" points="162.496,952.392 167.305,976.808 157.367,980.483 162.496,952.392 		"/>
	</g>
	<path fill="#FACA58" stroke="#000000" stroke-width="0.5" stroke-linecap="round" stroke-linejoin="round" d="M200.964,1167.943
		l-4.64,3.48c0,0-5.801,5.8,2.319,9.279c23.894,16.256,39.78,54.535,76.562,20.881l-4.641-27.841c0,0-2.32,12.761-9.28,23.2
		C247.515,1211.965,208.448,1185.746,200.964,1167.943L200.964,1167.943z"/>
	<path fill="#FFB380" stroke="#000000" stroke-width="1.0456" stroke-linecap="round" stroke-linejoin="round" d="M261.403,1146.224
		c-4.989,13.699-14.171,24.301-5.142,35.493c2.631,3.262,5.813-3.289,5.725-4.208c-0.436-4.478-3.029-4.675-1.479-6.969
		c6.699-9.912,8.828-0.944,4.352,6.969c-2.297,4.062-12.631,9.851,1.023,13.856c1.559,0.457,2.434,1.958,4.693,2.332
		c1.436,0.237,3.135-0.146,4.385,0.217c3.953,1.146,8.562,0.645,9.895-1.243c2.887-4.087,4.922-6.71,7.375-8.942
		c5.023-4.573,4.76-14.584,3.049-22.8c-0.93-7.657-3.617-14.047-7.576-17.812"/>
	<path fill="none" stroke="#000000" stroke-width="1.0787" d="M274.605,1193.566l6.429-10.215l3.291-11.51"/>
	<path fill="none" stroke="#000000" stroke-width="1.0787" d="M286.662,1189.828l2.664-6.044l2.07-12.967"/>
	<path fill="none" stroke="#000000" stroke-width="1.0787" d="M265.982,1191.018l5.612-8.181l4.175-9.694"/>
	<path fill="none" stroke="#000000" stroke-width="0.9158" d="M111.029,1118.645c-2.221-7.397-6.071-17.924-11.148-21.115"/>
	
		<linearGradient id="SVGID_1_" gradientUnits="userSpaceOnUse" x1="-404.3427" y1="369.7412" x2="-362.9932" y2="369.7412" gradientTransform="matrix(-1.8725 0 0 -1.8725 -684.0427 1788.8845)">
		<stop  offset="0" style="stop-color:#552D21"/>
		<stop  offset="1" style="stop-color:#7B4231"/>
	</linearGradient>
	<path fill="url(#SVGID_1_)" stroke="#000000" stroke-width="0.5" stroke-linecap="round" stroke-linejoin="round" d="
		M46.683,1073.982l2.319,18.561c0,0,0,5.8,3.48,33.64c3.48,27.841,4.64,13.921,6.96,22.041s-1.16,11.6-4.64,27.84
		c-3.48,16.24,2.319,26.681,5.8,35.96c3.479,9.28,8.12,20.881,11.6,31.32c3.48,10.44-15.08,15.08-29,23.2s-2.32-1.159,1.16-11.6
		s-2.32-31.32-4.64-61.48c-2.32-30.161-4.641-53.36-5.801-76.562c-1.159-23.199-3.479-54.52-2.319-62.641
		c1.16-8.119-1.16-32.479-3.48-39.44c-2.32-6.96-13.92-6.96-16.24-15.08c-2.319-8.12,4.641-8.12,10.44-18.56s-3.48-3.48-17.4-2.32
		c-13.92,1.16-9.28-18.56,0-44.081s41.761,0,41.761,0s5.8,26.68,5.8,44.081c0,17.4-6.96,12.76-15.08,16.24
		c-8.12,3.48-2.32,8.12,0,15.081c2.32,6.96,6.96,5.8,6.96,5.8L46.683,1073.982L46.683,1073.982z"/>
	<path fill="#FFB380" stroke="#000000" stroke-width="1.0057" stroke-linecap="round" stroke-linejoin="round" d="M68.75,1112.062
		c-4.008,3.669-9.5,6.528-16.4,7.845c-12.904,1.223-37.116-5.406-30.49-12.24c-2.57-2.449-10.535-7.43-2.507-8.522
		c-10.576-4.624-2.669-7.812,4.28-7.343c-12.989-7.031,9.552-5.478,11.878-4.864c8.021,2.744,19.789-3.133,7.25-2.527
		c-5.367,1.85-7.858-1.447-7.833-4.035c0.015-1.567,16.973-7.068,21.343-5.567c5.774,1.984,17.248,8.746,19.261,13.936"/>
	<path fill="none" stroke="#000000" stroke-width="0.6625" d="M45.169,1110.117c-7.178,3.175-17.61-2.865-24.851-3.442"/>
	<path fill="none" stroke="#000000" stroke-width="0.6625" d="M42.053,1100.711c-3.689,1.943-16.356-0.465-25.183-2.485"/>
	<path fill="none" stroke="#000000" stroke-width="0.6625" d="M44.783,1093.598c-6.118,1.926-5.547,0.191-21.475-1.406"/>
	<path fill="none" stroke="#000000" stroke-width="0.9158" d="M63.431,1093.59c-5.56-0.32-11.119-1.36-16.678-8.497"/>
	<path fill="none" stroke="#000000" stroke-width="0.9158" d="M50.643,1110.058l-1.776-14.979"/>
	<path fill="#E6E6E6" stroke="#000000" stroke-width="0.5" stroke-linecap="round" stroke-linejoin="round" d="M271.725,862.86
		l-10.44-13.92c0,0,0-9.28,4.64-10.44c4.641-1.16,10.44,3.48,18.561-2.32s4.641,23.2,12.76,29c8.121,5.8,16.24,8.12,19.721,31.32
		s-2.32,25.52-6.96,40.6s-7.54-2.9-7.54-2.9s-5.221-4.64-12.18-8.12c-6.961-3.48-8.121,5.22-13.921,12.18s-2.319-5.8,0-17.4
		c2.32-11.601-8.12-17.4-1.159-30.161C282.164,877.94,271.725,862.86,271.725,862.86L271.725,862.86z"/>
	<path fill="#FACA58" stroke="#000000" stroke-width="0.5" stroke-linecap="round" stroke-linejoin="round" d="M303.045,998.582
		c0,0-26.681,24.36-44.08,32.48c-17.4,8.12-71.922,29-76.561,33.64c-4.641,4.641-10.441,8.12-18.561-2.319
		c-8.12-10.44-27.84-20.881-40.601-26.681c-32.58-12.484-29.287-11.666-34.801-51.041l-10.439-1.16
		c3.925,33.427,3.46,50.434,40.601,58c18.56,5.801,19.72,11.6,30.16,18.561c10.439,6.96,11.6,9.279,16.24,22.04
		c4.64,12.76,0,95.121,0,95.121l15.08,1.16c0,0-2.32-97.441,3.479-103.241c5.8-5.801,47.561-22.04,73.081-34.8
		c25.52-12.76,59.16-39.44,59.16-39.44L303.045,998.582z"/>
	<path fill="#FACA58" stroke="#000000" stroke-width="0.5" stroke-linecap="round" stroke-linejoin="round" d="M152.243,1165.623
		c3.48,1.16,3.48,4.641,0,9.28c-8.765,10.121-35.208,30.061-45.24,25.521l1.16-6.96
		C126.641,1191.559,141.154,1180.019,152.243,1165.623L152.243,1165.623z"/>
	<g opacity="0.4211" filter="url(#filter4342)" enable-background="new    ">
		<path fill="#E9AFAF" d="M241.16,1085.586l42.879,175.65l-61.203-4.932c8.234-32.832-27.174-149.939-3.349-174.148L241.16,1085.586
			L241.16,1085.586z"/>
		<path fill="none" stroke="#C0343D" stroke-width="0.6707" stroke-linecap="round" stroke-linejoin="round" d="M241.16,1085.586
			l42.879,175.65l-61.203-4.932c8.234-32.832-27.174-149.939-3.349-174.148L241.16,1085.586L241.16,1085.586z"/>
	</g>
	<pattern  id="SVGID_2_" xlink:href="#Wavy" patternTransform="matrix(-1.8725 0 0 -1.8725 -23277.8359 -22344.4375)">
	</pattern>
	<path fill="url(#SVGID_2_)" stroke="#000000" stroke-width="0.5" stroke-linecap="round" stroke-linejoin="round" d="
		M303.045,998.582c0,0-26.681,24.36-44.08,32.48c-17.4,8.12-71.922,29-76.561,33.64c-4.641,4.641-10.441,8.12-18.561-2.319
		c-8.12-10.44-27.84-20.881-40.601-26.681c-32.58-12.484-29.287-11.666-34.801-51.041l-10.439-1.16
		c3.925,33.427,3.46,50.434,40.601,58c18.56,5.801,19.72,11.6,30.16,18.561c10.439,6.96,11.6,9.279,16.24,22.04
		c4.64,12.76,0,95.121,0,95.121l15.08,1.16c0,0-2.32-97.441,3.479-103.241c5.8-5.801,47.561-22.04,73.081-34.8
		c25.52-12.76,59.16-39.44,59.16-39.44L303.045,998.582z"/>
	<path fill="#FACA58" stroke="#000000" stroke-linecap="round" stroke-linejoin="round" d="M289.125,1114.583
		c-10.44,4.64-6.534,9.31-24.36,12.76c-17.98,3.48-6.96,1.16-12.761,1.16c-5.8,0,0,3.48,2.32,13.92
		c1.8,5.586,11.168-7.87,26.68-8.12c10.441-1.16,23.201-11.6,23.201-11.6l-5.801-15.08
		C301.885,1107.623,299.565,1109.943,289.125,1114.583z"/>
	<path fill="#FACA58" stroke="#000000" stroke-linecap="round" stroke-linejoin="round" d="M89.603,1093.703
		c-4.64,0-4.64,1.16,2.32,11.6c6.96,10.44,2.319,1.16,13.92,13.92s11.601,13.92,11.601,13.92l3.48-18.56c0,0-4.641-3.48-8.121-8.12
		c-3.479-4.641-5.8-11.6-12.76-15.08S89.603,1093.703,89.603,1093.703L89.603,1093.703z"/>
	<path fill="#E6E6E6" stroke="#000000" stroke-width="0.5" stroke-linecap="round" stroke-linejoin="round" d="M213.725,1011.342
		c-5.801-5.8-15.08-2.32-37.121-3.48c-22.04-1.16-58-11.6-58-11.6l-5.801,16.24l3.48,17.4l3.48,12.76l9.279-2.32l6.961,10.44
		l10.439-1.16l11.6,20.88l5.801-4.64l10.439,11.601l10.44-20.881l6.96,9.28l12.76-17.399l9.281,16.24l12.76-25.521
		c4.64-9.28-3.48-17.4-3.48-17.4C224.164,1021.782,219.524,1017.142,213.725,1011.342z"/>
	<g transform="matrix(.2106,0,0,.31696,-204.64683,800.93238)">
		<path fill="#FFFFFF" stroke="#000000" stroke-width="3.8705" d="M1555.389,643.999c14.718-120.462,107.937-32.528,218.679-14.479
			c106.842,17.414,186.126-9.345,182.574,59.519c-3.478,67.24-84,25.506-187.921,28.757
			C1702.991,712.753,1540.666,764.459,1555.389,643.999z"/>
		<path fill="none" stroke="#000000" stroke-width="3.8705" d="M1746.649,673.658c-22.286,11.258-34.175-7.428-62.934-12.991
			c-14.713-2.847-27.331,2.6-44.233,3.289c-8.096,0.33-28.903-11.7-43.092-15.179c-15.098-3.702-32.941-1.636-41.005-4.544"/>
	</g>
	<path fill="#E6E6E6" stroke="#000000" stroke-width="0.5" stroke-linecap="round" stroke-linejoin="round" d="M181.244,984.662
		c0-2.32-2.32-2.32-11.601,3.48s-6.96-1.16-23.2-9.28c-16.24-8.12-16.24-1.16-20.881,1.16c-4.64,2.32-16.24,18.561-25.52,40.601
		c-9.28,22.04,22.04-18.56,32.48-27.84c10.439-9.28,6.96,2.32,10.439,6.96c3.48,4.64,7.265,4.589,13.34-1.16
		c3.398-3.215-0.035,4.422,13.341,5.8c6.214,0.64,2.32,6.96,12.761,6.96c10.439,0,8.119-4.64,16.239,3.48s6.96,10.44,29.001,22.04
		c22.04,11.601-6.961-16.24-10.44-34.8S204.443,991.622,181.244,984.662L181.244,984.662z"/>
	
		<radialGradient id="SVGID_3_" cx="-476.2099" cy="497.7881" r="21.9966" gradientTransform="matrix(-2.4527 0 0 -1.556 -965.3118 1609.0305)" gradientUnits="userSpaceOnUse">
		<stop  offset="0" style="stop-color:#FFFFFF"/>
		<stop  offset="1" style="stop-color:#FFFFFF;stop-opacity:0"/>
	</radialGradient>
	<path fill="url(#SVGID_3_)" d="M202.704,800.22c29.79,0,53.94,15.321,53.94,34.22c0,0.019,0,0.038,0,0.057
		c-0.024,18.899-24.194,34.208-53.984,34.192c-29.791-0.016-53.921-15.35-53.896-34.249
		C148.764,815.541,172.914,800.22,202.704,800.22z"/>
	<path fill="#7B4231" d="M46.103,1084.423l-3.48,1.739l-11.6-2.319l2.899,40.021l17.98-0.58L46.103,1084.423L46.103,1084.423z"/>
	
		<radialGradient id="SVGID_4_" cx="-342.1337" cy="439.748" r="11.4603" gradientTransform="matrix(-0.8705 0 6.737259e-06 -1.7135 -279.5738 1696.4116)" gradientUnits="userSpaceOnUse">
		<stop  offset="0" style="stop-color:#F6ADCD"/>
		<stop  offset="1" style="stop-color:#C41562"/>
	</radialGradient>
	<path fill="url(#SVGID_4_)" d="M18.262,915.061c11.853,0,21.461,12.464,21.461,27.84l0,0c0,15.376-9.608,27.84-21.461,27.84
		c-11.852,0-21.46-12.464-21.46-27.84S6.41,915.061,18.262,915.061z"/>
	<path fill="#FACA58" stroke="#000000" stroke-linecap="round" stroke-linejoin="round" d="M289.125,1260.744
		c3.479,1.16-2.32-4.64-13.92-10.439c-27.324-7.428-69.097,5.447-87.002,27.84c-17.953,11.386-57-13.252-71.92-25.521
		c-8.12-4.64-19.721-6.96-19.721-6.96l-3.479,10.44c20.372,11.976,40.731,23.477,62.641,32.48
		c27.056,10.235,48.176-1.27,68.44-18.561c18.638-6.677,44.486-4.445,60.32,8.12c3.48,4.64,8.12,3.48,8.12,3.48L289.125,1260.744
		L289.125,1260.744z"/>
	
		<radialGradient id="SVGID_5_" cx="-56.0644" cy="1232.7734" r="26.4783" gradientTransform="matrix(-2.8198 -0.0022 0.0024 -3.0134 -146.5102 4652.458)" gradientUnits="userSpaceOnUse">
		<stop  offset="0" style="stop-color:#FFFFFF"/>
		<stop  offset="1" style="stop-color:#FFFFFF;stop-opacity:0"/>
	</radialGradient>
	<path fill="url(#SVGID_5_)" d="M11.925,1024.734l-7.562-59.293l-53.83,22.168l41.642-42.881l-50.895-28.265l59.489,5.821
		l-9.634-57.414l32.54,50.14l38.882-43.329l-18.913,56.703l58.118,3.384l-56.124,20.567l33.591,47.548l-51.072-31.056
		L11.925,1024.734L11.925,1024.734z"/>
	<path fill="none" stroke="#000000" stroke-width="0.6979" d="M245.856,969.492c-11.518,7.328-30.061,9.609-47.066,0.833"/>
	<path fill="none" stroke="#000000" stroke-width="0.5647" d="M135.395,966.026c-7.8,7.085-20.355,9.291-31.87,0.805"/>
	<path fill="none" stroke="#000000" stroke-width="0.6979" d="M246.436,974.712c-11.518,7.329-30.061,9.609-47.066,0.833"/>
	<path fill="none" stroke="#000000" stroke-width="0.5647" d="M135.395,970.086c-7.8,7.085-20.355,9.291-31.87,0.805"/>
</g>
</svg>
