<?xml version="1.0" encoding="UTF-8" standalone="no"?>
<svg viewBox="0 0 199.69678 267.0202" xmlns="http://www.w3.org/2000/svg" xmlns:xlink="http://www.w3.org/1999/xlink">
<defs>
<filter id="filter3663">
<feGaussianBlur stdDeviation=".48009"/>
</filter>
<filter id="filter3640">
<feGaussianBlur stdDeviation="2.14525"/>
</filter>
<filter id="filter4318">
<feGaussianBlur stdDeviation="1.20392"/>
</filter>
<filter height="1.1352" id="filter3720" width="1.63093" x="-.31546" y="-.0676">
<feGaussianBlur stdDeviation=".56333"/>
</filter>
<filter height="1.24606" id="filter4342" width="1.58486" x="-.29243" y="-.12303">
<feGaussianBlur stdDeviation="1.46189"/>
</filter>
<linearGradient id="linearGradient3295">
<stop offset="0" stop-color="#fff"/>
<stop offset="1" stop-color="#fff" stop-opacity="0"/>
</linearGradient>
<linearGradient gradientUnits="userSpaceOnUse" id="linearGradient6908" x1="-207.3882" x2="-166.03821">
<stop offset="0" stop-color="#552d21"/>
<stop offset="1" stop-color="#7b4231"/>
</linearGradient>
<pattern height="5.18058" id="Wavy" patternUnits="userSpaceOnUse" width="30.06602">
<path d="m7.597.061c-2.518-.248-4.941.241-7.607,1.727v1.273c2.783-1.63 5.183-2.009 7.482-1.781s4.497,1.081 6.781,1.938c4.567,1.713 9.551,3.458 15.813-.157l-.004-1.273c-6.44,3.709-10.816,1.982-15.371.273-2.278-.854-4.576-1.75-7.094-2z"/>
</pattern>
<radialGradient cx="-173.14821" cy="823.77795" gradientTransform="matrix(.46489,-1.827876e-6,3.5979274e-6,.91508,-92.65593,69.95699)" gradientUnits="userSpaceOnUse" id="radialGradient6900" r="11.46061">
<stop offset="0" stop-color="#f6adcd"/>
<stop offset="1" stop-color="#c41562"/>
</radialGradient>
<radialGradient cx="-273.50601" cy="762.44818" gradientTransform="matrix(1,0,0,.56338,0,332.89993)" gradientUnits="userSpaceOnUse" id="radialGradient6861" r="21.99199" xlink:href="#linearGradient3295"/>
<radialGradient cx="149.06929" cy="44.71102" gradientTransform="matrix(.97934,-7.688533e-4,8.2164867e-4,1.04658,2.99025,-2.07745)" gradientUnits="userSpaceOnUse" id="radialGradient3301" r="26.47801" xlink:href="#linearGradient3295"/>
</defs>
<g transform="translate(221.7538,-795.41403)">
<path d="m-322.44594,995.6872c1.23899,0 43.67424-4.0267 43.67424-4.0267s-12.38986-7.43392-16.41656-7.43392-14.55808.30975-19.20427,3.09747-8.6729,8.0534-8.05341,8.36315z" fill-rule="evenodd" stroke="#000" stroke-linecap="round" stroke-linejoin="round" stroke-width=".5" transform="translate(120.20615,59.69258)"/>
<path d="m-322.75568,842.36276c0,0-4.33645,1.23899-8.6729,1.85848s-6.19493,1.85848-6.19493,1.85848l-4.33644,24.77971c1.49375-3.85672 13.74453-18.80174 17.65553-15.48732 3.09747,2.47797 21.992,11.15087 23.85047,14.24833s26.63819,16.10681 26.63819,16.10681l36.55007-9.91188 5.57543-11.15087c0,0 9.29239,1.85848 13.62884-7.43391s6.19493-19.20428 6.19493-19.20428 6.19492-1.85847-1.23899-1.85847-109.6502,6.19492-109.6502,6.19492z" fill="#84401e" fill-rule="evenodd" transform="translate(120.20615,59.69258)"/>
<path d="m-177.46703,1028.8058c2.55165-18.7402-1.02883-37.48032 3.07626-56.2205l-8.56759-18.94865-4.73258,34.32217-15.12355-4.86565c.37326-17.85295 3.67042-41.57299 14.58718-48.56203l16.80571,2.74477 25.80118-44.24774 21.90279,38.35193 14.56642,7.5611c3.55639,2.21252-4.66021,9.14818 4.41838,17.11391 3.20053,2.8082 9.64392-1.0798 22.99941-6.00012l4.05178,14.6247c-7.06029,4.18413-23.54553,14.17111-30.50536,13.85394-3.02765-.138-6.28824-3.10657-7.66889-4.15202-33.32136-25.23142-11.93337-6.17909-8.90123,10.84882-4.55567-7.31109 4.39398-29.20942 5.7775-33.84142 2.25934-7.5642 11.37641-11.458 8.69632-7.1596l-14.71731,79.53149-20.07959-39.67202-32.38683,44.71692z" fill="#ffb380" stroke="#000" stroke-linecap="round" stroke-linejoin="round" stroke-width=".96142"/>
<path d="m-83.17349,1052.5336c2.85828,11.6679-15.29274,6.6222-35.32639,5.4415-9.84801,2.6042-20.62635,4.331-20.6242-3.0039 .00241-8.192 5.16666-15.6428 23.40968-15.6428s28.34592,3.6398 32.54091,13.2052z" fill="#502d16" stroke="#000" stroke-width=".73572"/>
<path d="m-158.53733,1054.0383c0,6.5181 1.71635,7.4403-14.26279,7.4403s-22.69792.0352-22.69792-6.4829 4.52549-12.4464 20.50463-12.4464 16.45608,4.9709 16.45608,11.489z" fill="#502d16" stroke="#000" stroke-width=".61419"/>
<path d="m-165.97767,1043.0289c0,1.3751-3.74918,2.4911-8.3687,2.4911s-8.36868-1.116-8.36868-2.4911c1.21202-.3354 14.1596.0379 16.73738,0z" fill="#d45500" stroke="#000" stroke-linecap="round" stroke-linejoin="round" stroke-width=".61419"/>
<path d="m-185.56861,1042.6292c.61009-7.2231 20.42889,6.3038 20.35262,0-.62006-7.0796-20.12397,6.0592-20.35262,0z" fill="none" stroke="#000" stroke-width="1.22838"/>
<path d="m-165.63501,928.84267 46.81041-1.35733c14.55818,8.34807 6.47577,2.44492 20.57122,28.53703-5.23991,1.91237-8.73341,9.5592-13.97333,8.67197l-2.57772-12.84203 11.49994,90.75469c-19.2014,10.5788-41.30177,28.2002-59.56205,7.7722-10.32261-11.548-34.11534-4.7176-38.1381,3.7782-1.03611-3.0323.40588-13.3526 2.90916-26.1964 5.36747-27.5393 15.61419-66.67974 16.77365-70.45251l-4.07205,15.53035c-12.7177.93901-14.72215-6.29797-21.44808-9.04887 15.20745-28.86334 18.61117-39.45435 41.20695-35.1473z" fill="#84401e" stroke="#000" stroke-linecap="round" stroke-linejoin="round" stroke-width=".91585"/>
<path d="m114.76845,604.67764h14.01752c-33.88546,14.88417-28.26597,44.63707-20.57103,43.29338-8.08368-.07014-11.4701-3.62427-16.22496-5.62129-1.1111-16.9608 5.36392-34.56555 22.77848-37.67209z" fill="#e2807a" filter="url(#filter4318)" opacity=".51053" stroke="#c03434" stroke-linecap="round" stroke-linejoin="round" transform="matrix(.91927,9.3864454e-2,-9.5588815e-2,.90269,-224.83632,374.17933)"/>
<path d="m-202.68205,835.52767c-6.91922,35.20723-5.31827,54.8195 2.78198,71.49572 8.43465,17.36467 53.29918,27.22023 61.71181,27.87512 8.27959-.93664 32.73732-17.79383 34.31848-32.64991l6.18755-58.13609c-28.07296-59.32321-67.62645-66.14921-104.99982-8.58484z" fill="#ffb380" fill-rule="evenodd" stroke="#000" stroke-width=".76632"/>
<path d="m-125.4227,859.62007 1.85848,21.68225 15.17757,5.88519c7.18022-7.27022 5.03878-14.98859 4.33645-24.46997l-7.43391-5.57544c-5.20722-2.18405-8.87795,1.30331-13.60887,2.52397l-.18868-.00575-.14103-.04023-1e-005-2e-005z" fill="#fff" fill-rule="evenodd" stroke="#000" stroke-linecap="round" stroke-linejoin="round" stroke-width=".5"/>
<path d="m-176.8406,866.12477c-1.02771,14.66373-3.06337,13.35317 6.81442,23.23096l22.30176-5.8852 2.47796-22.30169c-17.8209-4.25641-18.12201-8.1589-31.59414,4.95593z" fill="#fff" fill-rule="evenodd" stroke="#000" stroke-linecap="round" stroke-linejoin="round" stroke-width=".5"/>
<path d="m161.84465,612.62634c17.20053,6.57894-23.29372,1.79481-39.41842-12.53255-19.36856-17.20966-18.79986-46.18509-5.20843-64.40142-4.51-4.65311-8.92431,51.53842 44.62685,76.93397z" fill="#fca" filter="url(#filter3640)" transform="matrix(1.05105,0,0,.90756,-312.10244,374.94365)"/>
<path d="m327.28943,695.77832a84.85281,91.92388 0 1,1 -169.70563,0 84.85281,91.92388 0 1,1 169.70563,0z" fill="#0a550a" filter="url(#filter3663)" opacity=".74211" stroke="#000" stroke-width="9.5" transform="matrix(.11333,-2.484402e-2,3.2755528e-2,.14019,-210.83596,780.02626)"/>
<path d="m327.28943,695.77832a84.85281,91.92388 0 1,1 -169.70563,0 84.85281,91.92388 0 1,1 169.70563,0z" filter="url(#filter3663)" opacity=".74211" stroke="#000" stroke-width="9.5" transform="matrix(9.2590271e-2,-2.0297395e-2,1.7143532e-2,7.3374041e-2,-196.44679,820.53399)"/>
<path d="m327.28943,695.77832a84.85281,91.92388 0 1,1 -169.70563,0 84.85281,91.92388 0 1,1 169.70563,0z" filter="url(#filter3663)" opacity=".86316" stroke="#000" stroke-width="9.5" transform="matrix(5.4638065e-2,-1.1977613e-2,1.4937045e-2,6.3930309e-2,-184.07668,830.53546)"/>
<path d="m-165.79747,864.41465c-1.9359,2.58122-1.42575,6.714-2.55765,5.65042s-1.40337-4.62593.53253-7.20714 4.41434-3.26269 5.54624-2.19911-1.58522,1.17463-3.52112,3.75583z" fill="#fff" opacity=".86316" stroke="#fff9f9" stroke-width="1.12122"/>
<path d="m-152.66396,876.34299c.40094-1.28798-.24494-2.64377.27826-2.49067s1.01991,1.35469.61898,2.64267-1.20868,2.01301-1.73189,1.8599 .43371-.72393.83465-2.0119z" fill="#fff" opacity=".86316" stroke="#fff9f9" stroke-width=".43079"/>
<path d="m-146.30585,883.15709-24.08092,5.27896-4.08797-3.26936 5.58998,5.32038 22.57891-7.32998z" fill="#2b0000" fill-rule="evenodd" stroke="#000" stroke-width=".13316"/>
<path d="m-174.79607,857.95876c9.08189-4.687 18.98437-3.46897 25.13559.44464" fill="none" stroke="#000" stroke-width=".69787"/>
<path d="m327.28943,695.77832a84.85281,91.92388 0 1,1 -169.70563,0 84.85281,91.92388 0 1,1 169.70563,0z" fill="#0a550a" filter="url(#filter3663)" opacity=".74211" stroke="#000" stroke-width="9.5" transform="matrix(-7.6738267e-2,-2.4020858e-2,-2.2179395e-2,.13555,-80.47683,781.23545)"/>
<path d="m327.28943,695.77832a84.85281,91.92388 0 1,1 -169.70563,0 84.85281,91.92388 0 1,1 169.70563,0z" filter="url(#filter3663)" opacity=".74211" stroke="#000" stroke-width="9.5" transform="matrix(-6.2694642e-2,-1.9624878e-2,-1.1608214e-2,7.0942933e-2,-90.22001,820.40104)"/>
<path d="m327.28943,695.77832a84.85281,91.92388 0 1,1 -169.70563,0 84.85281,91.92388 0 1,1 169.70563,0z" filter="url(#filter3663)" opacity=".86316" stroke="#000" stroke-width="9.5" transform="matrix(-3.6996478e-2,-1.1580756e-2,-1.0114159e-2,6.1812101e-2,-98.59605,830.07112)"/>
<path d="m-110.97325,862.82779c1.31084,2.4957.9654,6.49155 1.73183,5.46321s.95025-4.47266-.36059-6.96835-2.98903-3.15459-3.75546-2.12624 1.07339,1.1357 2.38422,3.63138z" fill="#fff" opacity=".86316" stroke="#fff9f9" stroke-width=".90721"/>
<path d="m-119.8662,874.36091c-.27149-1.24531.16585-2.55617-.18842-2.40815s-.6906,1.30981-.41912,2.55512 .81842,1.94631 1.17269,1.79827-.29367-.69995-.56515-1.94524z" fill="#fff" opacity=".86316" stroke="#fff9f9" stroke-width=".34857"/>
<path d="m-124.1714,880.94924 16.30565,5.10405 2.76805-3.16103-3.78509,5.14409-15.28861-7.08711z" fill="#2b0000" fill-rule="evenodd" stroke="#000" stroke-width=".10774"/>
<path d="m-107.45811,857.55609c-6.14952-4.5317-12.85468-3.35403-17.01979.4299" fill="none" stroke="#000" stroke-width=".56467"/>
<path d="m-199.64406,893.64076c-3.38578.18059-5.23186-1.06484-7.7426-3.37742-6.94481-11.55747-4.69869-20.42063 3.26677-24.4722m2.73814,5.83547c-5.3938,2.43987-6.29717,13.68137.48004,14.46553 1.89403.21915 3.23257,1.45189 3.82081-.33606 .83488-2.53762-3.59796-1.81967-4.16916-4.38935" fill="#ffb380" stroke="#000" stroke-linecap="round" stroke-linejoin="round" stroke-width=".78071"/>
<path d="m-193.17783,863.27358c6.44848-20.77869 29.26351-41.1082 46.22252-7.89805-14.55621-12.33263-38.08437-2.02804-46.22252,7.89805z" fill="#fff" opacity=".93" stroke="#000" stroke-opacity=".81818" stroke-width=".58578"/>
<path d="m-222.39787,774.21857c0,0 8.6729,2.47797 9.91188,7.43391s2.47797.61949-.61949,11.15087 .61949,9.91188-2.47797,15.48732-4.95594,6.19492-4.95594,6.19492l1.23898-22.92123-3.09746-17.34579z" fill="#e6e6e6" fill-rule="evenodd" stroke="#000" stroke-linecap="round" stroke-linejoin="round" stroke-width=".5" transform="translate(120.20615,59.69258)"/>
<path d="m-96.94867,855.18656c-4.43492-10.83299-20.20268-25.78838-33.34893-8.57549 8.91582,5.48998 28.01973-.85935 33.34893,8.57549z" fill="#fff" opacity=".93" stroke="#000" stroke-opacity=".81818" stroke-width=".42932"/>
<path d="m162.38648,558.78379-.51331,19.54515-4.19828-4.61697 4.71159-14.92818z" fill="#fca" filter="url(#filter3720)" transform="matrix(1.07869,-.36603,.16847,.75795,-404.22798,515.15455)"/>
<path d="m-275.67424,934.66717c-3.99699,9.50745-24.86001,23.50943-32.21362,15.48732-3.71695-5.57544-4.95594-12.38986-4.95594-12.38986l-2.47797,14.86783c19.64268,17.97264 28.12615-2.46963 40.88652-11.15087 4.33645-1.85848 1.23898-4.95594 1.23898-4.95594l-2.47797-1.85848z" fill="#faca58" fill-rule="evenodd" stroke="#000" stroke-linecap="round" stroke-linejoin="round" stroke-width=".5" transform="translate(120.20615,59.69258)"/>
<path d="m-201.79039,981.10096c-2.11457,2.01095-3.54922,5.42311-4.04602,9.51273-.91363,4.38759-1.0543,9.73351 1.62832,12.17581 1.3099,1.1926 2.39724,2.5929 3.93871,4.7759 .71177,1.008 3.17261,1.2754 5.2836.6638 .66798-.1936 1.57566.0108 2.3416-.1159 1.20733-.1999 1.67414-1.001 2.50654-1.2452 7.29206-2.1393 1.77354-5.2307.54671-7.39982-2.39035-4.22627-1.25341-9.0153 2.32409-3.72196 .82791,1.22498-.55691,1.33049-.7895,3.72165-.04773.49068 1.65208,3.98893 3.0572,2.24733 4.82213-5.97702-.08188-11.63887-2.74617-18.95461" fill="#ffb380" stroke="#000" stroke-linecap="round" stroke-linejoin="round" stroke-width="1.04557"/>
<path d="m-199.9857,996.44136 1.75773,6.14714 3.43271,5.455" fill="none" stroke="#000" stroke-width="1.07872"/>
<path d="m-203.76304,995.89444 1.10603,6.92476 1.42247,3.228" fill="none" stroke="#000" stroke-width="1.07872"/>
<path d="m-195.41693,997.1361 2.22958,5.1774 2.9972,4.3685" fill="none" stroke="#000" stroke-width="1.07872"/>
<path d="m-101.48549,956.75602c-2.71147,1.70442-4.76764,7.32574-5.95427,11.27617" fill="none" stroke="#000" stroke-width=".91585"/>
<path d="m-193.28171,884.48826 1.23898-30.97463c0,0 2.47797.61949 3.71696-3.09746s4.33645-6.19493 0-8.05341-8.05341.6195-8.05341-8.67289 3.09747-23.54073 3.09747-23.54073 17.34579-13.62884 22.30173,0 7.43391,24.16022 0,23.54073-12.38985-4.33645-9.29239,1.23898 6.81442,5.57543 5.57544,9.91188-7.43392,4.33645-8.6729,8.05341-2.47797,16.7263-1.85848,21.06275-.61949,21.06275-1.23898,33.4526-1.85848,24.77971-3.09747,40.88652-4.33645,27.25768-2.47797,32.83311 8.05341,10.53138.61949,6.19493-17.34579-6.81442-15.48731-12.38986 4.33645-11.77036 6.19492-16.7263 4.95595-10.53137 3.09747-19.20427-3.71696-10.53138-2.47797-14.86782 1.85848,3.09746 3.71695-11.77037 1.85848-17.96528 1.85848-17.96528l1.23899-9.91189z" fill="url(#linearGradient6908)" fill-rule="evenodd" stroke="#000" stroke-linecap="round" stroke-linejoin="round" stroke-width=".5" transform="translate(120.20615,59.69258)"/>
<path d="m-88.48202,952.06306c1.07472-2.77167 7.20205-6.38248 10.28625-7.442 2.33336-.80158 11.38973,2.13634 11.39781,2.9732 .01335,1.38193-1.31695,3.14259-4.18306,2.15497-6.69666-.32329-.41179,2.81518 3.87142,1.34949 1.24266-.32744 13.28039-1.15738 6.34367,2.59764 3.71122-.25056 7.93385,1.45182 2.2854,3.92133 4.28773.58359.03403,3.2438-1.33842,4.55152 3.53862,3.64983-9.39173,7.18977-16.28305,6.53688-3.68497-.70333-6.61845-2.23043-8.75875-4.1897" fill="#ffb380" stroke="#000" stroke-linecap="round" stroke-linejoin="round" stroke-width="1.00573"/>
<path d="m-58.99634,961.63983c-3.86631.30802-9.43798,3.53387-13.2709,1.83852" fill="none" stroke="#000" stroke-width=".66246"/>
<path d="m-57.15438,957.12752c-4.71378,1.07938-11.47822,2.36549-13.44899,1.32749" fill="none" stroke="#000" stroke-width=".66246"/>
<path d="m-60.59286,953.90523c-8.50641.8529-8.20096,1.77923-11.46833.75061" fill="none" stroke="#000" stroke-width=".66246"/>
<path d="m-73.11301,950.11407c-2.96894,3.81138-5.93788,4.36653-8.90683,4.53775" fill="none" stroke="#000" stroke-width=".91585"/>
<path d="m-74.24157,955.44693-.94863,7.99928" fill="none" stroke="#000" stroke-width=".91585"/>
<path d="m-313.4633,771.7406c0,0-5.57543,8.0534-1.85847,14.86782s-1.85848,9.91188-.61949,16.10681 3.09746,13.00935 0,9.29239-3.71696-8.36315-7.43391-6.50467-6.50468,4.33645-6.50468,4.33645-1.54873,9.60213-4.0267,1.54873-5.57543-9.29239-3.71696-21.68224 6.19493-13.62884 10.53138-16.72631 2.47797-18.58478 6.81442-15.48731 7.43391.61949 9.91188,1.23898 2.47797,5.57544 2.47797,5.57544l-5.57544,7.43391z" fill="#e6e6e6" fill-rule="evenodd" stroke="#000" stroke-linecap="round" stroke-linejoin="round" stroke-width=".5" transform="translate(120.20615,59.69258)"/>
<path d="m-337.00401,845.46023c0,0 17.96528,14.24833 31.59412,21.06275s35.93058,15.48731 39.02804,18.58478 1.85848,55.13484 1.85848,55.13484l8.0534-.61949c0,0-2.47797-43.98398 0-50.7984s3.09747-8.0534 8.6729-11.77036 6.19493-6.81442 16.10681-9.91188c19.83441-4.04106 19.58635-13.12337 21.68224-30.97463l-5.57543.61949c-2.94434,21.02765-1.18578,20.59056-18.58478,27.25768-6.81442,3.09746-17.34579,8.67289-21.68224,14.24833s-7.43392,3.71695-9.91189,1.23898-31.59412-13.62884-40.88651-17.96528-23.54073-17.3458-23.54073-17.3458l-6.81441,1.23899z" fill="#faca58" fill-rule="evenodd" stroke="#000" stroke-linecap="round" stroke-linejoin="round" stroke-width=".5" transform="translate(120.20615,59.69258)"/>
<path d="m-249.65555,933.42819c5.92219,7.68781 13.67305,13.85053 23.54072,14.86782l.6195,3.71696c-5.35766,2.42441-19.47935-8.22376-24.16022-13.62884-1.85847-2.47797-1.85847-4.33645 0-4.95594z" fill="#faca58" fill-rule="evenodd" stroke="#000" stroke-linecap="round" stroke-linejoin="round" stroke-width=".5" transform="translate(120.20615,59.69258)"/>
<path d="m212.88171,617.42817 7.2864-2.33076c9.4929,7.17365 3.49794,49.78272 8.07566,60.77512l-20.82815,4.92835 5.46609-63.37271z" fill="#e9afaf" filter="url(#filter4342)" opacity=".42105" stroke="#c0343d" stroke-linecap="round" stroke-linejoin="round" stroke-width=".67065" transform="matrix(1.51469,.22844,-.23069,1.49991,-356.95,-24.34)"/>
<path d="m-337.00401,845.46023c0,0 17.96528,14.24833 31.59412,21.06275s35.93058,15.48731 39.02804,18.58478 1.85848,55.13484 1.85848,55.13484l8.0534-.61949c0,0-2.47797-43.98398 0-50.7984s3.09747-8.0534 8.6729-11.77036 6.19493-6.81442 16.10681-9.91188c19.83441-4.04106 19.58635-13.12337 21.68224-30.97463l-5.57543.61949c-2.94434,21.02765-1.18578,20.59056-18.58478,27.25768-6.81442,3.09746-17.34579,8.67289-21.68224,14.24833s-7.43392,3.71695-9.91189,1.23898-31.59412-13.62884-40.88651-17.96528-23.54073-17.3458-23.54073-17.3458l-6.81441,1.23899z" fill="url(#Wavy)" fill-rule="evenodd" stroke="#000" stroke-linecap="round" stroke-linejoin="round" stroke-width=".5" transform="translate(120.20615,59.69258)"/>
<path d="m-327.71162,902.45355-3.09747,8.05341c0,0 6.81442,5.57543 12.38986,6.19492 8.28457.1332 13.28718,7.31958 14.24833,4.33645 1.23898-5.57543 4.33645-7.43391 1.23898-7.43391s2.78772,1.23899-6.81442-.61949c-9.51991-1.84256-7.43391-4.33645-13.00934-6.81442s-6.81442-3.71696-4.95594-3.71696z" fill="#faca58" fill-rule="evenodd" stroke="#000" stroke-linecap="round" stroke-linejoin="round" transform="translate(120.20615,59.69258)"/>
<path d="m-216.20294,895.01964c0,0-1.85848-3.09746-5.57544-1.23899s-4.95594,5.57544-6.81442,8.05341-4.33644,4.33645-4.33644,4.33645l1.85847,9.91188c0,0 0-.61949 6.19493-7.43391s3.71696-1.85848 7.43391-7.43391 3.71696-6.19493 1.23899-6.19493z" fill="#faca58" fill-rule="evenodd" stroke="#000" stroke-linecap="round" stroke-linejoin="round" transform="translate(120.20615,59.69258)"/>
<path d="m-287.4446,856.61109c0,0-4.33645,4.33645-1.85848,9.29239l6.81442,13.62884 4.95594-8.67289 6.81442,9.29239 3.71696-4.95595 5.57543,11.15087 5.57544-6.19492 3.09746,2.47797 6.19493-11.15087 5.57543.61949 3.71696-5.57543 4.95594,1.23898 1.85848-6.81442 1.85847-9.29239-3.09746-8.67289c0,0-19.20427,5.57543-30.97463,6.19492s-16.7263-1.23898-19.82377,1.85848-5.57543,5.57543-4.95594,5.57543z" fill="#e6e6e6" fill-rule="evenodd" stroke="#000" stroke-linecap="round" stroke-linejoin="round" stroke-width=".5" transform="translate(120.20615,59.69258)"/>
<g transform="matrix(.2106,0,0,.31696,-204.64683,800.93238)">
<path d="m317.50001,375.21934c-55.49968-1.73571-98.50181,20.55157-100.35713-15.35714-1.90018-36.77685 40.44345-22.48652 97.49998-31.78571 59.14097-9.63892 108.92342-56.59917 116.78459,7.73208s-78.82694,36.71801-113.92744,39.41077z" fill="#fff" stroke="#000" stroke-width="3.87045"/>
<path d="m431.42857,335.93362c-4.3056,1.55322-13.8361.44988-21.89852,2.42691-7.57642,1.85787-18.68939,8.2821-23.01291,8.10604-9.02457-.36751-15.76357-3.2765-23.62186-1.75631-15.35751,2.97092-21.70715,12.94995-33.60957,6.93764" fill="none" stroke="#000" stroke-width="3.87045"/>
</g>
<path d="m-265.14286,836.78733c-12.38986,3.71695-17.3458-.61949-19.20428,9.29239s-17.34579,24.77971-5.57543,18.58478 11.15087-7.43391 15.48732-11.77036 3.09746-1.85848 8.67289-1.85848 3.4959-3.37518 6.81442-3.71696c7.14339-.7357 5.30966-4.81445 7.12417-3.09745 3.24479,3.07042 5.26569,3.09745 7.12416.61948s0-8.67289 5.57544-3.71695 22.30173,26.63818 17.34579,14.86782-11.15086-20.44326-13.62884-21.68224-2.47797-4.95594-11.15086-.61949-7.43392,8.0534-12.38986,4.95594-6.19492-3.09747-6.19492-1.85848z" fill="#e6e6e6" fill-rule="evenodd" stroke="#000" stroke-linecap="round" stroke-linejoin="round" stroke-width=".5" transform="translate(120.20615,59.69258)"/>
<path d="m-251.51402,762.44818a21.99199,12.38985 0 1,1 -43.98398,0 21.99199,12.38985 0 1,1 43.98398,0z" fill="url(#radialGradient6861)" fill-rule="evenodd" transform="matrix(1.30986,0,0,1.475,201.85703,-308.35551)"/>
<path d="m-192.97197,890.0637-3.09746,20.753 9.60214.30975 1.54873-21.3725-6.19493,1.23899-1.85848-.92924z" fill="#7b4231" fill-rule="evenodd" transform="translate(120.20615,59.69258)"/>
<path d="m-161.68759,823.77795a11.46061,14.86783 0 1,1 -22.92123,0 11.46061,14.86783 0 1,1 22.92123,0z" fill="url(#radialGradient6900)" fill-rule="evenodd" transform="translate(115.25021,50.40019)"/>
<path d="m-322.75568,984.22658-1.85848,11.15087c0,0 2.47797.6195 4.33645-1.85848 8.45633-6.71036 22.26021-7.9023 32.21362-4.33644 10.82205,9.23388 22.10081,15.37797 36.55007,9.91188 11.70041-4.80826 22.57275-10.95021 33.4526-17.3458l-1.85848-5.57543c0,0-6.19493,1.23899-10.53137,3.71696-7.96806,6.55182-28.8202,19.70926-38.40855,13.62883-9.56176-11.95873-31.87015-18.83452-46.46195-14.86782-6.19493,3.09746-9.29239,6.19493-7.43391,5.57543z" fill="#faca58" fill-rule="evenodd" stroke="#000" stroke-linecap="round" stroke-linejoin="round" transform="translate(120.20615,59.69258)"/>
<path d="m149.90998,74.82905-5.63719-19.41709-17.73766,10.78593 11.66616-16.51369-19.49203-7.14295 20.18465-1.17515-6.56851-19.69304 13.50369,15.04831 11.30125-17.41387-3.34583,19.94007 20.66092-2.0217-17.67586,9.81656 14.4625,14.89285-18.69562-7.69902-2.62647,20.59278z" fill="url(#radialGradient3301)" fill-rule="evenodd" transform="matrix(1.53767,0,0,1.53767,-285.02566,802.8181)"/>
<path d="m-154.30667,888.82331c-9.08189,4.687-18.98437,3.46897-25.13559-.44464" fill="none" stroke="#000" stroke-width=".69787"/>
<path d="m-103.43141,886.95765c-6.14952,4.5317-12.85468,3.35403-17.01979-.4299" fill="none" stroke="#000" stroke-width=".56467"/>
<path d="m-154.61642,891.61103c-9.08189,4.687-18.98437,3.46897-25.13559-.44464" fill="none" stroke="#000" stroke-width=".69787"/>
<path d="m-103.43141,889.12587c-6.14952,4.5317-12.85468,3.35403-17.01979-.4299" fill="none" stroke="#000" stroke-width=".56467"/>
</g>
</svg>
